<svg xmlns="http://www.w3.org/2000/svg" version="1.1" xmlns:xlink="http://www.w3.org/1999/xlink" xmlns:svgjs="http://svgjs.dev/svgjs" width="1500" height="1500" viewBox="0 0 1500 1500"><rect width="1500" height="1500" fill="#000000"></rect><g transform="matrix(0.6666666666666666,0,0,0.6666666666666666,249.70104957836043,411.2744939271255)"><svg viewBox="0 0 364 247" data-background-color="#dedede" preserveAspectRatio="xMidYMid meet" height="1017" width="1500" xmlns="http://www.w3.org/2000/svg" xmlns:xlink="http://www.w3.org/1999/xlink"><g id="tight-bounds" transform="matrix(1,0,0,1,0.10881795347680168,-0.09999999999999432)"><svg viewBox="0 0 363.7823640930464 247.2" height="247.2" width="363.7823640930464"><g><svg viewBox="0 0 395.52 268.7665858782319" height="247.2" width="363.7823640930464"><g transform="matrix(1,0,0,1,0,161.720055375403)"><svg viewBox="0 0 395.52 107.04653050282894" height="107.04653050282894" width="395.52"><g id="textblocktransform"><svg viewBox="0 0 395.52 107.04653050282894" height="107.04653050282894" width="395.52" id="textblock"><g><svg viewBox="0 0 395.52 58.37844685818699" height="58.37844685818699" width="395.52"><g transform="matrix(1,0,0,1,0,0)"><svg width="395.52" viewBox="1 -35.01 240.48 35.5" height="58.37844685818699" data-palette-color="#374151"><path d="M20.85-32.01L12.5-32.01 12.5 0 9.35 0 9.35-32.01 1-32.01 1-35.01 20.85-35.01 20.85-32.01ZM39.55-6.86L39.55-6.86Q39.55-5.35 38.97-4 38.4-2.66 37.4-1.66 36.4-0.66 35.06-0.09 33.71 0.49 32.2 0.49L32.2 0.49 30.2 0.49Q28.68 0.49 27.34-0.09 26-0.66 25-1.66 24-2.66 23.42-4 22.85-5.35 22.85-6.86L22.85-6.86 22.85-18.14Q22.85-19.65 23.42-21 24-22.34 25-23.34 26-24.34 27.34-24.91 28.68-25.49 30.2-25.49L30.2-25.49 32.2-25.49Q33.71-25.49 35.06-24.91 36.4-24.34 37.4-23.34 38.4-22.34 38.97-21 39.55-19.65 39.55-18.14L39.55-18.14 39.55-12.26 25.85-12.26 25.85-6.69Q25.85-5.79 26.19-4.99 26.54-4.2 27.12-3.61 27.71-3.03 28.5-2.69 29.29-2.34 30.2-2.34L30.2-2.34 32.2-2.34Q33.1-2.34 33.9-2.69 34.69-3.03 35.28-3.61 35.86-4.2 36.2-4.99 36.55-5.79 36.55-6.69L36.55-6.69 36.55-8.35 39.55-7.86 39.55-6.86ZM36.55-14.6L36.55-18.31Q36.55-19.21 36.2-20.01 35.86-20.8 35.28-21.39 34.69-21.97 33.9-22.31 33.1-22.66 32.2-22.66L32.2-22.66 30.2-22.66Q29.29-22.66 28.5-22.31 27.71-21.97 27.12-21.39 26.54-20.8 26.19-20.01 25.85-19.21 25.85-18.31L25.85-18.31 25.85-14.6 36.55-14.6ZM62.25-6.86L62.25-6.86Q62.25-5.35 61.68-4 61.1-2.66 60.1-1.66 59.1-0.66 57.76-0.09 56.42 0.49 54.9 0.49L54.9 0.49 52.9 0.49Q51.39 0.49 50.04-0.09 48.7-0.66 47.7-1.66 46.7-2.66 46.13-4 45.55-5.35 45.55-6.86L45.55-6.86 45.55-18.14Q45.55-19.65 46.13-21 46.7-22.34 47.7-23.34 48.7-24.34 50.04-24.91 51.39-25.49 52.9-25.49L52.9-25.49 54.9-25.49Q56.42-25.49 57.76-24.91 59.1-24.34 60.1-23.34 61.1-22.34 61.68-21 62.25-19.65 62.25-18.14L62.25-18.14 62.25-17.14 59.25-16.65 59.25-18.31Q59.25-19.21 58.91-20.01 58.56-20.8 57.98-21.39 57.39-21.97 56.6-22.31 55.81-22.66 54.9-22.66L54.9-22.66 52.9-22.66Q52-22.66 51.2-22.31 50.41-21.97 49.82-21.39 49.24-20.8 48.9-20.01 48.55-19.21 48.55-18.31L48.55-18.31 48.55-6.69Q48.55-5.79 48.9-4.99 49.24-4.2 49.82-3.61 50.41-3.03 51.2-2.69 52-2.34 52.9-2.34L52.9-2.34 54.9-2.34Q55.81-2.34 56.6-2.69 57.39-3.03 57.98-3.61 58.56-4.2 58.91-4.99 59.25-5.79 59.25-6.69L59.25-6.69 59.25-8.35 62.25-7.86 62.25-6.86ZM84.95 0L81.95 0 81.95-18.31Q81.95-19.21 81.61-20.01 81.27-20.8 80.68-21.39 80.1-21.97 79.3-22.31 78.51-22.66 77.6-22.66L77.6-22.66 75.6-22.66Q74.7-22.66 73.91-22.31 73.11-21.97 72.53-21.39 71.94-20.8 71.6-20.01 71.26-19.21 71.26-18.31L71.26-18.31 71.26 0 68.25 0 68.25-35.01 71.26-35.01 71.26-22.9Q72.28-24.12 73.72-24.8 75.16-25.49 76.85-25.49L76.85-25.49 77.6-25.49Q79.12-25.49 80.46-24.91 81.8-24.34 82.81-23.34 83.81-22.34 84.38-21 84.95-19.65 84.95-18.14L84.95-18.14 84.95 0ZM95.2-31.01L91.71-31.01 91.71-35.01 95.2-35.01 95.2-31.01ZM94.96 0L91.96 0 91.96-25 94.96-25 94.96 0ZM118.66-6.86L118.66-6.86Q118.66-5.35 118.09-4 117.52-2.66 116.52-1.66 115.51-0.66 114.17-0.09 112.83 0.49 111.32 0.49L111.32 0.49 109.31 0.49Q107.8 0.49 106.46-0.09 105.11-0.66 104.11-1.66 103.11-2.66 102.54-4 101.97-5.35 101.97-6.86L101.97-6.86 101.97-18.14Q101.97-19.65 102.54-21 103.11-22.34 104.11-23.34 105.11-24.34 106.46-24.91 107.8-25.49 109.31-25.49L109.31-25.49 111.32-25.49Q112.83-25.49 114.17-24.91 115.51-24.34 116.52-23.34 117.52-22.34 118.09-21 118.66-19.65 118.66-18.14L118.66-18.14 118.66-6.86ZM115.66-6.69L115.66-18.31Q115.66-19.21 115.32-20.01 114.98-20.8 114.39-21.39 113.81-21.97 113.01-22.31 112.22-22.66 111.32-22.66L111.32-22.66 109.31-22.66Q108.41-22.66 107.62-22.31 106.82-21.97 106.24-21.39 105.65-20.8 105.31-20.01 104.97-19.21 104.97-18.31L104.97-18.31 104.97-6.69Q104.97-5.79 105.31-4.99 105.65-4.2 106.24-3.61 106.82-3.03 107.62-2.69 108.41-2.34 109.31-2.34L109.31-2.34 111.32-2.34Q112.22-2.34 113.01-2.69 113.81-3.03 114.39-3.61 114.98-4.2 115.32-4.99 115.66-5.79 115.66-6.69L115.66-6.69ZM161.87 0L158.72 0 158.72-24 158.5-22.51 150.37 0 148.71 0 140.51-22.51 140.31-24 140.31 0 137.17 0 137.17-35.01 138.8-35.01 149.42-6.3 149.52-5 149.62-6.3 160.21-35.01 161.87-35.01 161.87 0ZM185.06-6.86L185.06-6.86Q185.06-5.35 184.49-4 183.92-2.66 182.91-1.66 181.91-0.66 180.57-0.09 179.23 0.49 177.71 0.49L177.71 0.49 175.71 0.49Q174.2 0.49 172.86-0.09 171.51-0.66 170.51-1.66 169.51-2.66 168.94-4 168.36-5.35 168.36-6.86L168.36-6.86 168.36-18.14Q168.36-19.65 168.94-21 169.51-22.34 170.51-23.34 171.51-24.34 172.86-24.91 174.2-25.49 175.71-25.49L175.71-25.49 177.71-25.49Q179.23-25.49 180.57-24.91 181.91-24.34 182.91-23.34 183.92-22.34 184.49-21 185.06-19.65 185.06-18.14L185.06-18.14 185.06-12.26 171.37-12.26 171.37-6.69Q171.37-5.79 171.71-4.99 172.05-4.2 172.64-3.61 173.22-3.03 174.02-2.69 174.81-2.34 175.71-2.34L175.71-2.34 177.71-2.34Q178.62-2.34 179.41-2.69 180.2-3.03 180.79-3.61 181.38-4.2 181.72-4.99 182.06-5.79 182.06-6.69L182.06-6.69 182.06-8.35 185.06-7.86 185.06-6.86ZM182.06-14.6L182.06-18.31Q182.06-19.21 181.72-20.01 181.38-20.8 180.79-21.39 180.2-21.97 179.41-22.31 178.62-22.66 177.71-22.66L177.71-22.66 175.71-22.66Q174.81-22.66 174.02-22.31 173.22-21.97 172.64-21.39 172.05-20.8 171.71-20.01 171.37-19.21 171.37-18.31L171.37-18.31 171.37-14.6 182.06-14.6ZM207.77 0L206.76 0 205.1-2.54Q204.08-1.15 202.54-0.33 201 0.49 199.17 0.49L199.17 0.49 198.42 0.49Q196.9 0.49 195.56-0.09 194.22-0.66 193.21-1.66 192.21-2.66 191.64-4 191.07-5.35 191.07-6.86L191.07-6.86 191.07-18.14Q191.07-19.65 191.64-21 192.21-22.34 193.21-23.34 194.22-24.34 195.56-24.91 196.9-25.49 198.42-25.49L198.42-25.49 199.17-25.49Q200.86-25.49 202.3-24.8 203.74-24.12 204.76-22.9L204.76-22.9 204.76-35.01 207.77-35.01 207.77 0ZM204.76-6.69L204.76-18.31Q204.76-19.21 204.42-20.01 204.08-20.8 203.49-21.39 202.91-21.97 202.11-22.31 201.32-22.66 200.42-22.66L200.42-22.66 198.42-22.66Q197.51-22.66 196.72-22.31 195.92-21.97 195.34-21.39 194.75-20.8 194.41-20.01 194.07-19.21 194.07-18.31L194.07-18.31 194.07-6.69Q194.07-5.79 194.41-4.99 194.75-4.2 195.34-3.61 195.92-3.03 196.72-2.69 197.51-2.34 198.42-2.34L198.42-2.34 200.42-2.34Q201.32-2.34 202.11-2.69 202.91-3.03 203.49-3.61 204.08-4.2 204.42-4.99 204.76-5.79 204.76-6.69L204.76-6.69ZM218.02-31.01L214.53-31.01 214.53-35.01 218.02-35.01 218.02-31.01ZM217.77 0L214.77 0 214.77-25 217.77-25 217.77 0ZM241.48 0L240.48 0 238.82-2.49Q237.79-1.15 236.25-0.33 234.71 0.49 232.88 0.49L232.88 0.49 232.13 0.49Q230.61 0.49 229.27-0.09 227.93-0.66 226.93-1.66 225.92-2.66 225.35-4 224.78-5.35 224.78-6.86L224.78-6.86 224.78-7.1Q224.78-8.62 225.35-9.96 225.92-11.3 226.93-12.3 227.93-13.31 229.27-13.88 230.61-14.45 232.13-14.45L232.13-14.45 238.47-14.45 238.47-18.31Q238.47-19.21 238.13-20.01 237.79-20.8 237.2-21.39 236.62-21.97 235.82-22.31 235.03-22.66 234.13-22.66L234.13-22.66 232.37-22.66Q231.47-22.66 230.67-22.31 229.88-21.97 229.29-21.39 228.71-20.8 228.37-20.01 228.02-19.21 228.02-18.31L228.02-18.31 228.02-17.41 225.02-17.9 225.02-18.14Q225.02-19.65 225.6-21 226.17-22.34 227.17-23.34 228.17-24.34 229.51-24.91 230.86-25.49 232.37-25.49L232.37-25.49 234.13-25.49Q235.64-25.49 236.98-24.91 238.33-24.34 239.33-23.34 240.33-22.34 240.9-21 241.48-19.65 241.48-18.14L241.48-18.14 241.48 0ZM238.47-6.69L238.47-12.11 232.13-12.11Q231.22-12.11 230.43-11.77 229.64-11.43 229.05-10.83 228.46-10.23 228.12-9.44 227.78-8.64 227.78-7.74L227.78-7.74 227.78-6.69Q227.78-5.79 228.12-4.99 228.46-4.2 229.05-3.61 229.64-3.03 230.43-2.69 231.22-2.34 232.13-2.34L232.13-2.34 234.13-2.34Q235.03-2.34 235.82-2.69 236.62-3.03 237.2-3.61 237.79-4.2 238.13-4.99 238.47-5.79 238.47-6.69L238.47-6.69Z" opacity="1" transform="matrix(1,0,0,1,0,0)" fill="#ffffff" class="wordmark-text-0" data-fill-palette-color="primary" id="text-0"></path></svg></g></svg></g><g transform="matrix(1,0,0,1,75.54432,72.16019707868034)"><svg viewBox="0 0 244.43135999999998 34.8863334241486" height="34.8863334241486" width="244.43135999999998"><g transform="matrix(1,0,0,1,0,0)"><svg width="244.43135999999998" viewBox="4 -35.01 315.39 45.019999999999996" height="34.8863334241486" data-palette-color="#374151"><path d="M23.71-8.59L23.71-8.59Q23.71-6.81 23.03-5.25 22.36-3.69 21.19-2.51 20.02-1.34 18.44-0.67 16.87 0 15.09 0L15.09 0 4 0 4-35.01 15.09-35.01Q16.87-35.01 18.44-34.34 20.02-33.67 21.19-32.5 22.36-31.32 23.03-29.75 23.71-28.17 23.71-26.39L23.71-26.39 23.71-8.59ZM20.56-8.59L20.56-26.39Q20.56-27.56 20.12-28.58 19.68-29.59 18.91-30.36 18.14-31.13 17.13-31.57 16.11-32.01 14.94-32.01L14.94-32.01 7.15-32.01 7.15-3 14.94-3Q16.11-3 17.13-3.44 18.14-3.88 18.91-4.64 19.68-5.4 20.12-6.41 20.56-7.42 20.56-8.59L20.56-8.59ZM33.44-31.01L29.95-31.01 29.95-35.01 33.44-35.01 33.44-31.01ZM33.2 0L30.2 0 30.2-25 33.2-25 33.2 0ZM57.15 3.15L57.15 3.15Q57.15 4.66 56.57 5.93 56 7.2 55 8.11 54 9.01 52.66 9.51 51.31 10.01 49.8 10.01L49.8 10.01 48.55 10.01Q47.04 10.01 45.7 9.51 44.36 9.01 43.35 8.11 42.35 7.2 41.78 5.93 41.21 4.66 41.21 3.15L41.21 3.15 41.21 3.05Q41.21 1.59 41.74 0.37 42.28-0.85 43.21-1.76L43.21-1.76Q42.04-2.47 41.34-3.67 40.64-4.88 40.64-6.35L40.64-6.35Q40.64-7.67 41.21-8.8 41.77-9.94 42.74-10.64L42.74-10.64Q41.57-11.67 40.89-13.11 40.2-14.55 40.2-16.26L40.2-16.26 40.2-18.14Q40.2-19.65 40.78-21 41.35-22.34 42.35-23.34 43.35-24.34 44.7-24.91 46.04-25.49 47.55-25.49L47.55-25.49 48.8-25.49Q50.63-25.49 52.18-24.67 53.73-23.85 54.76-22.46L54.76-22.46 56.39-25 57.39-25 57.39-16.26Q57.39-14.75 56.82-13.4 56.25-12.06 55.24-11.06 54.24-10.06 52.9-9.48 51.56-8.91 50.04-8.91L50.04-8.91 45.7-8.91Q45.19-8.91 44.72-8.7 44.26-8.5 43.9-8.15 43.55-7.81 43.35-7.34 43.16-6.86 43.16-6.35L43.16-6.35Q43.16-5.83 43.35-5.37 43.55-4.91 43.9-4.55 44.26-4.2 44.72-4 45.19-3.81 45.7-3.81L45.7-3.81 49.8-3.81Q51.31-3.81 52.66-3.31 54-2.81 55-1.9 56-1 56.57 0.27 57.15 1.54 57.15 3.05L57.15 3.05 57.15 3.15ZM54.41-16.09L54.41-18.31Q54.41-19.21 54.07-20.01 53.73-20.8 53.13-21.39 52.53-21.97 51.74-22.31 50.95-22.66 50.04-22.66L50.04-22.66 47.55-22.66Q46.65-22.66 45.86-22.31 45.06-21.97 44.48-21.39 43.89-20.8 43.55-20.01 43.21-19.21 43.21-18.31L43.21-18.31 43.21-16.09Q43.21-15.19 43.55-14.39 43.89-13.6 44.48-13.01 45.06-12.43 45.86-12.08 46.65-11.74 47.55-11.74L47.55-11.74 50.04-11.74Q50.95-11.74 51.74-12.08 52.53-12.43 53.13-13.01 53.73-13.6 54.07-14.39 54.41-15.19 54.41-16.09L54.41-16.09ZM54.29 3.3L54.29 2.91Q54.29 2 53.95 1.28 53.61 0.56 53.02 0.07 52.44-0.42 51.64-0.68 50.85-0.95 49.95-0.95L49.95-0.95 48.41-0.95Q47.5-0.95 46.71-0.68 45.92-0.42 45.33 0.07 44.75 0.56 44.4 1.28 44.06 2 44.06 2.91L44.06 2.91 44.06 3.3Q44.06 4.2 44.4 4.91 44.75 5.62 45.33 6.12 45.92 6.62 46.71 6.88 47.5 7.15 48.41 7.15L48.41 7.15 49.95 7.15Q50.85 7.15 51.64 6.88 52.44 6.62 53.02 6.12 53.61 5.62 53.95 4.91 54.29 4.2 54.29 3.3L54.29 3.3ZM67.16-31.01L63.66-31.01 63.66-35.01 67.16-35.01 67.16-31.01ZM66.91 0L63.91 0 63.91-25 66.91-25 66.91 0ZM85.76 0L83.02 0Q81.66 0 80.45-0.51 79.24-1.03 78.35-1.93 77.46-2.83 76.93-4.03 76.41-5.22 76.41-6.59L76.41-6.59 76.41-22.14 71.91-22.14 71.91-25 76.41-25 76.41-31.01 79.41-31.49 79.41-25 85.76-25 85.76-22.14 79.41-22.14 79.41-6.45Q79.41-5.69 79.69-5.04 79.97-4.39 80.46-3.91 80.95-3.42 81.61-3.14 82.27-2.86 83.02-2.86L83.02-2.86 85.76-2.86 85.76 0ZM107.97 0L106.97 0 105.31-2.49Q104.28-1.15 102.75-0.33 101.21 0.49 99.38 0.49L99.38 0.49 98.62 0.49Q97.11 0.49 95.76-0.09 94.42-0.66 93.42-1.66 92.42-2.66 91.85-4 91.27-5.35 91.27-6.86L91.27-6.86 91.27-7.1Q91.27-8.62 91.85-9.96 92.42-11.3 93.42-12.3 94.42-13.31 95.76-13.88 97.11-14.45 98.62-14.45L98.62-14.45 104.97-14.45 104.97-18.31Q104.97-19.21 104.63-20.01 104.28-20.8 103.7-21.39 103.11-21.97 102.32-22.31 101.53-22.66 100.62-22.66L100.62-22.66 98.86-22.66Q97.96-22.66 97.17-22.31 96.37-21.97 95.79-21.39 95.2-20.8 94.86-20.01 94.52-19.21 94.52-18.31L94.52-18.31 94.52-17.41 91.52-17.9 91.52-18.14Q91.52-19.65 92.09-21 92.66-22.34 93.66-23.34 94.67-24.34 96.01-24.91 97.35-25.49 98.86-25.49L98.86-25.49 100.62-25.49Q102.14-25.49 103.48-24.91 104.82-24.34 105.82-23.34 106.82-22.34 107.4-21 107.97-19.65 107.97-18.14L107.97-18.14 107.97 0ZM104.97-6.69L104.97-12.11 98.62-12.11Q97.72-12.11 96.92-11.77 96.13-11.43 95.54-10.83 94.96-10.23 94.62-9.44 94.27-8.64 94.27-7.74L94.27-7.74 94.27-6.69Q94.27-5.79 94.62-4.99 94.96-4.2 95.54-3.61 96.13-3.03 96.92-2.69 97.72-2.34 98.62-2.34L98.62-2.34 100.62-2.34Q101.53-2.34 102.32-2.69 103.11-3.03 103.7-3.61 104.28-4.2 104.63-4.99 104.97-5.79 104.97-6.69L104.97-6.69ZM117.98 0L114.98 0 114.98-35.01 117.98-35.01 117.98 0ZM162.19 0L159.04 0 159.04-24 158.82-22.51 150.69 0 149.03 0 140.82-22.51 140.63-24 140.63 0 137.48 0 137.48-35.01 139.12-35.01 149.74-6.3 149.83-5 149.93-6.3 160.53-35.01 162.19-35.01 162.19 0ZM185.38 0L184.38 0 182.72-2.49Q181.69-1.15 180.15-0.33 178.62 0.49 176.78 0.49L176.78 0.49 176.03 0.49Q174.51 0.49 173.17-0.09 171.83-0.66 170.83-1.66 169.83-2.66 169.25-4 168.68-5.35 168.68-6.86L168.68-6.86 168.68-7.1Q168.68-8.62 169.25-9.96 169.83-11.3 170.83-12.3 171.83-13.31 173.17-13.88 174.51-14.45 176.03-14.45L176.03-14.45 182.37-14.45 182.37-18.31Q182.37-19.21 182.03-20.01 181.69-20.8 181.11-21.39 180.52-21.97 179.73-22.31 178.93-22.66 178.03-22.66L178.03-22.66 176.27-22.66Q175.37-22.66 174.57-22.31 173.78-21.97 173.2-21.39 172.61-20.8 172.27-20.01 171.93-19.21 171.93-18.31L171.93-18.31 171.93-17.41 168.92-17.9 168.92-18.14Q168.92-19.65 169.5-21 170.07-22.34 171.07-23.34 172.07-24.34 173.42-24.91 174.76-25.49 176.27-25.49L176.27-25.49 178.03-25.49Q179.54-25.49 180.89-24.91 182.23-24.34 183.23-23.34 184.23-22.34 184.8-21 185.38-19.65 185.38-18.14L185.38-18.14 185.38 0ZM182.37-6.69L182.37-12.11 176.03-12.11Q175.12-12.11 174.33-11.77 173.54-11.43 172.95-10.83 172.37-10.23 172.02-9.44 171.68-8.64 171.68-7.74L171.68-7.74 171.68-6.69Q171.68-5.79 172.02-4.99 172.37-4.2 172.95-3.61 173.54-3.03 174.33-2.69 175.12-2.34 176.03-2.34L176.03-2.34 178.03-2.34Q178.93-2.34 179.73-2.69 180.52-3.03 181.11-3.61 181.69-4.2 182.03-4.99 182.37-5.79 182.37-6.69L182.37-6.69ZM201.73-22.14L198.73-22.14Q197.83-22.14 197.03-21.8 196.24-21.46 195.65-20.87 195.07-20.29 194.73-19.49 194.38-18.7 194.38-17.8L194.38-17.8 194.38 0 191.38 0 191.38-25 192.38-25 194.02-22.46Q195.04-23.85 196.59-24.67 198.14-25.49 199.98-25.49L199.98-25.49 201.73-25.49 201.73-22.14ZM224.44 0L220.53 0 210.32-12.5 220.53-25 224.44-25 213.99-12.5 224.44 0ZM209.74 0L206.74 0 206.74-35.01 209.74-35.01 209.74 0ZM245.14-6.86L245.14-6.86Q245.14-5.35 244.56-4 243.99-2.66 242.99-1.66 241.99-0.66 240.64-0.09 239.3 0.49 237.79 0.49L237.79 0.49 235.79 0.49Q234.27 0.49 232.93-0.09 231.59-0.66 230.59-1.66 229.58-2.66 229.01-4 228.44-5.35 228.44-6.86L228.44-6.86 228.44-18.14Q228.44-19.65 229.01-21 229.58-22.34 230.59-23.34 231.59-24.34 232.93-24.91 234.27-25.49 235.79-25.49L235.79-25.49 237.79-25.49Q239.3-25.49 240.64-24.91 241.99-24.34 242.99-23.34 243.99-22.34 244.56-21 245.14-19.65 245.14-18.14L245.14-18.14 245.14-12.26 231.44-12.26 231.44-6.69Q231.44-5.79 231.78-4.99 232.12-4.2 232.71-3.61 233.3-3.03 234.09-2.69 234.88-2.34 235.79-2.34L235.79-2.34 237.79-2.34Q238.69-2.34 239.48-2.69 240.28-3.03 240.86-3.61 241.45-4.2 241.79-4.99 242.13-5.79 242.13-6.69L242.13-6.69 242.13-8.35 245.14-7.86 245.14-6.86ZM242.13-14.6L242.13-18.31Q242.13-19.21 241.79-20.01 241.45-20.8 240.86-21.39 240.28-21.97 239.48-22.31 238.69-22.66 237.79-22.66L237.79-22.66 235.79-22.66Q234.88-22.66 234.09-22.31 233.3-21.97 232.71-21.39 232.12-20.8 231.78-20.01 231.44-19.21 231.44-18.31L231.44-18.31 231.44-14.6 242.13-14.6ZM262.98 0L260.25 0Q258.88 0 257.67-0.51 256.46-1.03 255.57-1.93 254.68-2.83 254.15-4.03 253.63-5.22 253.63-6.59L253.63-6.59 253.63-22.14 249.14-22.14 249.14-25 253.63-25 253.63-31.01 256.63-31.49 256.63-25 262.98-25 262.98-22.14 256.63-22.14 256.63-6.45Q256.63-5.69 256.91-5.04 257.19-4.39 257.68-3.91 258.17-3.42 258.83-3.14 259.49-2.86 260.25-2.86L260.25-2.86 262.98-2.86 262.98 0ZM272.74-31.01L269.25-31.01 269.25-35.01 272.74-35.01 272.74-31.01ZM272.5 0L269.5 0 269.5-25 272.5-25 272.5 0ZM296.2 0L293.2 0 293.2-18.31Q293.2-19.21 292.86-20.01 292.52-20.8 291.93-21.39 291.34-21.97 290.55-22.31 289.76-22.66 288.85-22.66L288.85-22.66 286.85-22.66Q285.95-22.66 285.16-22.31 284.36-21.97 283.78-21.39 283.19-20.8 282.85-20.01 282.51-19.21 282.51-18.31L282.51-18.31 282.51 0 279.5 0 279.5-25 280.5-25 282.14-22.46Q283.17-23.85 284.72-24.67 286.27-25.49 288.1-25.49L288.1-25.49 288.85-25.49Q290.37-25.49 291.71-24.91 293.05-24.34 294.05-23.34 295.06-22.34 295.63-21 296.2-19.65 296.2-18.14L296.2-18.14 296.2 0ZM319.15 3.15L319.15 3.15Q319.15 4.66 318.58 5.93 318 7.2 317 8.11 316 9.01 314.66 9.51 313.31 10.01 311.8 10.01L311.8 10.01 310.56 10.01Q309.04 10.01 307.7 9.51 306.36 9.01 305.36 8.11 304.35 7.2 303.78 5.93 303.21 4.66 303.21 3.15L303.21 3.15 303.21 3.05Q303.21 1.59 303.74 0.37 304.28-0.85 305.21-1.76L305.21-1.76Q304.04-2.47 303.34-3.67 302.65-4.88 302.65-6.35L302.65-6.35Q302.65-7.67 303.21-8.8 303.77-9.94 304.75-10.64L304.75-10.64Q303.57-11.67 302.89-13.11 302.21-14.55 302.21-16.26L302.21-16.26 302.21-18.14Q302.21-19.65 302.78-21 303.35-22.34 304.35-23.34 305.36-24.34 306.7-24.91 308.04-25.49 309.55-25.49L309.55-25.49 310.8-25.49Q312.63-25.49 314.18-24.67 315.73-23.85 316.76-22.46L316.76-22.46 318.39-25 319.39-25 319.39-16.26Q319.39-14.75 318.82-13.4 318.25-12.06 317.25-11.06 316.24-10.06 314.9-9.48 313.56-8.91 312.04-8.91L312.04-8.91 307.7-8.91Q307.19-8.91 306.72-8.7 306.26-8.5 305.9-8.15 305.55-7.81 305.36-7.34 305.16-6.86 305.16-6.35L305.16-6.35Q305.16-5.83 305.36-5.37 305.55-4.91 305.9-4.55 306.26-4.2 306.72-4 307.19-3.81 307.7-3.81L307.7-3.81 311.8-3.81Q313.31-3.81 314.66-3.31 316-2.81 317-1.9 318-1 318.58 0.27 319.15 1.54 319.15 3.05L319.15 3.05 319.15 3.15ZM316.42-16.09L316.42-18.31Q316.42-19.21 316.07-20.01 315.73-20.8 315.13-21.39 314.54-21.97 313.74-22.31 312.95-22.66 312.04-22.66L312.04-22.66 309.55-22.66Q308.65-22.66 307.86-22.31 307.06-21.97 306.48-21.39 305.89-20.8 305.55-20.01 305.21-19.21 305.21-18.31L305.21-18.31 305.21-16.09Q305.21-15.19 305.55-14.39 305.89-13.6 306.48-13.01 307.06-12.43 307.86-12.08 308.65-11.74 309.55-11.74L309.55-11.74 312.04-11.74Q312.95-11.74 313.74-12.08 314.54-12.43 315.13-13.01 315.73-13.6 316.07-14.39 316.42-15.19 316.42-16.09L316.42-16.09ZM316.29 3.3L316.29 2.91Q316.29 2 315.95 1.28 315.61 0.56 315.02 0.07 314.44-0.42 313.64-0.68 312.85-0.95 311.95-0.95L311.95-0.95 310.41-0.95Q309.51-0.95 308.71-0.68 307.92-0.42 307.33 0.07 306.75 0.56 306.41 1.28 306.06 2 306.06 2.91L306.06 2.91 306.06 3.3Q306.06 4.2 306.41 4.91 306.75 5.62 307.33 6.12 307.92 6.62 308.71 6.88 309.51 7.15 310.41 7.15L310.41 7.15 311.95 7.15Q312.85 7.15 313.64 6.88 314.44 6.62 315.02 6.12 315.61 5.62 315.95 4.91 316.29 4.2 316.29 3.3L316.29 3.3Z" opacity="1" transform="matrix(1,0,0,1,0,0)" fill="#ffffff" class="slogan-text-1" data-fill-palette-color="secondary" id="text-1"></path></svg></g></svg></g></svg></g></svg></g><g transform="matrix(1,0,0,1,117.41367810798295,0)"><svg viewBox="0 0 160.6926437840341 147.93830515490964" height="147.93830515490964" width="160.6926437840341"><g><svg xmlns="http://www.w3.org/2000/svg" xmlns:xlink="http://www.w3.org/1999/xlink" version="1.1" x="0" y="0" viewBox="9.398 12.339999999999998 80.193 73.82799999999999" enable-background="new 0 0 100 100" xml:space="preserve" height="147.93830515490964" width="160.6926437840341" class="icon-icon-0" data-fill-palette-color="accent" id="icon-0"><g fill="#374151" data-fill-palette-color="accent"><path d="M55.894 49.046c0 0.515 0 1.027 0 1.992 0 2.509 1.142 3.675 3.328 3.675 0.708 0 2.05 0 2.757 0 2.606 0 4.379 2.119 4.379 4.375 0 0.386 0 1.611 0 2.318 0 2.509-1.137 4.021-3.795 4.021-0.451 0-2.682 0-3.196 0-2.796 0-4.253-1.278-4.253-3.889 0-0.386 0-1.515 0-2.158 0-2.059-1.479-3.41-3.281-3.41-0.579 0-4.052 0-4.759 0-2.38 0-2.959 1.608-2.959 3.41 0 0.644 0 3.284 0 4.249 0 2.252 1.351 3.024 3.088 3.024 0.836 0 2.03 0 2.931 0 3.31 0 4.9 1.452 4.9 3.77 0 0.772 0 0.379 0 1.601 0 2.634 1.498 3.632 3.881 3.632 1.865 0 4.272 0 4.915 0 2.433 0 3.622-1.284 3.622-3.479 0-0.901 0-1.024 0-1.796 0-3.023 1.676-3.988 4.893-3.988 0.9 0 2.934 0 3.384 0 1.866 0 2.725-1.158 2.725-2.702 0-1.543 0-4.181 0-6.24 0-2.058-1.158-3.023-3.409-3.023-0.966 0-2.896 0-4.054 0-2.419 0-4.588-1.829-4.588-5.21 0-1.094 0-0.898 0-1.992 0-2.509-1.142-3.675-3.329-3.675-0.708 0-2.049 0-2.757 0-2.606 0-4.379-2.118-4.379-4.374 0-0.386 0-1.611 0-2.318 0-2.509 1.138-4.021 3.796-4.021 0.45 0 2.681 0 3.195 0 2.796 0 4.254 1.278 4.254 3.889 0 0.386 0 1.515 0 2.158 0 2.059 1.479 3.409 3.281 3.409 0.579 0 4.05 0 4.758 0 2.38 0 2.959-1.608 2.959-3.409 0-0.644 0-3.284 0-4.249 0-2.251-1.351-3.023-3.088-3.023-0.836 0-2.03 0-2.931 0-3.31 0-4.9-1.452-4.9-3.77 0-0.772 0-0.293 0-1.516 0-2.633-1.425-3.717-3.808-3.717-1.865 0-4.345 0-4.988 0-2.433 0-3.622 1.284-3.622 3.48 0 0.9 0 1.023 0 1.795 0 3.023-1.676 3.988-4.893 3.988-0.9 0-2.935 0-3.385 0-1.865 0-2.724 1.158-2.724 2.702s0 4.181 0 6.24 1.157 3.024 3.41 3.024c0.964 0 2.894 0 4.052 0C53.725 43.836 55.894 45.665 55.894 49.046z" fill="#ffffff" data-fill-palette-color="accent"></path><path d="M86.07 54.482c1.945 0 3.521-1.577 3.521-3.521v-2.688c0-1.945-1.576-3.522-3.521-3.522h-2.688c-1.944 0-3.521 1.577-3.521 3.522v2.688c0 1.945 1.577 3.521 3.521 3.521H86.07z" fill="#ffffff" data-fill-palette-color="accent"></path><path d="M36.547 31.871c1.158 0 2.042 0 3.008 0 2.251 0 3.409-0.965 3.409-3.023 0-0.569 0-1.649 0-1.974 0.113-3.194 2.224-4.658 4.578-4.658 1.157 0 2.043 0 3.008 0 2.253 0 3.41-0.965 3.41-3.023s0-2.607 0-4.151-0.858-2.702-2.724-2.702c-0.45 0-4.795 0-5.695 0-1.846 0-2.631 0.855-2.631 2.782 0 0.708 0 2.047 0 2.434 0 2.195-1.681 4.253-4.171 4.364-1.486 0-3.597 0-4.194 0-1.845 0-2.631 0.855-2.631 2.782 0 0.708 0 2.123 0 2.508 0 2.256-1.771 4.375-4.379 4.375-0.707 0-2.049 0-2.757 0-2.188 0-3.329 1.165-3.329 3.674 0 1.093 0 1.978 0 3.071 0 3.381-2.168 5.21-4.588 5.21-1.158 0-3.088 0-4.054 0-2.251 0-3.409 0.965-3.409 3.023 0 0.267 0 6.5 0 6.766 0 2.059 1.158 3.023 3.409 3.023 0.966 0 2.896 0 4.054 0 2.42 0 4.588 1.049 4.588 4.431 0 1.093 0 1.318 0 2.412 0 2.509 1.142 3.674 3.329 3.674 0.708 0 2.05 0 2.757 0 2.607 0 4.379 2.119 4.379 4.375 0 0.386 0 1.831 0 2.539 0 1.927 0.786 2.782 2.631 2.782 0.6 0 2.726 0 4.213 0l-0.021 0.024c2.491 0.11 4.171 2.169 4.171 4.364 0 0.386 0 1.726 0 2.433 0 1.927 0.785 2.782 2.631 2.782 0.9 0 5.244 0 5.694 0 1.866 0 2.725-1.158 2.725-2.702s0-2.092 0-4.151-1.158-3.024-3.409-3.024c-0.965 0-1.851 0-3.009 0-2.348 0-4.453-1.457-4.576-4.633 0-0.379 0-1.372 0-2.053 0-2.059-1.158-3.023-3.409-3.023-0.966 0-1.85 0-3.008 0-2.421 0-4.59-1.828-4.59-5.209 0-0.515 0-0.667 0-1.633 0-2.509 1.143-3.674 3.33-3.674 0.708 0 2.049 0 2.756 0 2.607 0 4.38-2.119 4.38-4.375 0-0.255 0-3.236 0-3.491 0-2.256-1.772-4.375-4.38-4.375-0.707 0-2.048 0-2.756 0-2.188 0-3.33-1.166-3.33-3.674 0-0.965 0-2.845 0-3.36C31.957 33.411 34.126 31.871 36.547 31.871z" fill="#ffffff" data-fill-palette-color="accent"></path></g></svg></g></svg></g><g></g></svg></g><defs></defs></svg><rect width="363.7823640930464" height="247.2" fill="none" stroke="none" visibility="hidden"></rect></g></svg></g></svg>